<?xml version="1.0" standalone="no"?>
<!DOCTYPE svg PUBLIC "-//W3C//DTD SVG 20010904//EN"
 "http://www.w3.org/TR/2001/REC-SVG-20010904/DTD/svg10.dtd">
<svg version="1.0" xmlns="http://www.w3.org/2000/svg"
 width="512.000000pt" height="512.000000pt" viewBox="0 0 512.000000 512.000000"
 preserveAspectRatio="xMidYMid meet">

<g transform="translate(0.000000,512.000000) scale(0.100000,-0.100000)"
fill="#000000" stroke="none">
<path d="M2915 5114 c-157 -18 -228 -31 -340 -59 -752 -191 -1332 -800 -1490
-1563 -82 -395 -44 -807 111 -1186 201 -492 595 -890 1088 -1100 454 -194 963
-216 1435 -60 502 165 919 518 1165 986 300 568 314 1250 37 1823 -111 230
-222 387 -400 566 -339 338 -752 535 -1236 589 -84 9 -302 11 -370 4z m440
-724 c527 -118 910 -497 1032 -1023 36 -154 38 -399 5 -554 -100 -464 -425
-836 -865 -992 -277 -97 -589 -101 -862 -10 -209 70 -361 165 -526 329 -204
204 -319 421 -375 706 -26 131 -23 358 5 491 76 364 272 655 576 860 168 113
376 188 605 217 78 10 317 -4 405 -24z"/>
<path d="M634 1358 c-468 -471 -554 -561 -577 -610 -102 -215 -66 -430 97
-594 80 -80 162 -125 264 -145 121 -23 270 5 371 71 25 16 289 273 586 571
485 486 538 542 521 552 -10 7 -72 51 -137 100 -201 148 -383 337 -510 527
-29 44 -56 80 -59 80 -3 0 -253 -249 -556 -552z"/>
</g>
</svg>
