<svg version="1.1" xmlns="http://www.w3.org/2000/svg" xmlns:xlink="http://www.w3.org/1999/xlink" width="512.000000pt" height="512.000000pt" viewBox="0,0,256,256"><g fill="#ffffff" fill-rule="nonzero" stroke="none" stroke-width="1" stroke-linecap="butt" stroke-linejoin="miter" stroke-miterlimit="10" stroke-dasharray="" stroke-dashoffset="0" font-family="none" font-weight="none" font-size="none" text-anchor="none" style="mix-blend-mode: normal"><g transform="translate(0.02034,-0.01815) scale(0.5,0.5)"><g transform="translate(0,512) scale(0.1,-0.1)"><path d="M2915,5114c-157,-18 -228,-31 -340,-59c-752,-191 -1332,-800 -1490,-1563c-82,-395 -44,-807 111,-1186c201,-492 595,-890 1088,-1100c454,-194 963,-216 1435,-60c502,165 919,518 1165,986c300,568 314,1250 37,1823c-111,230 -222,387 -400,566c-339,338 -752,535 -1236,589c-84,9 -302,11 -370,4zM3355,4390c527,-118 910,-497 1032,-1023c36,-154 38,-399 5,-554c-100,-464 -425,-836 -865,-992c-277,-97 -589,-101 -862,-10c-209,70 -361,165 -526,329c-204,204 -319,421 -375,706c-26,131 -23,358 5,491c76,364 272,655 576,860c168,113 376,188 605,217c78,10 317,-4 405,-24z"></path><path d="M634,1358c-468,-471 -554,-561 -577,-610c-102,-215 -66,-430 97,-594c80,-80 162,-125 264,-145c121,-23 270,5 371,71c25,16 289,273 586,571c485,486 538,542 521,552c-10,7 -72,51 -137,100c-201,148 -383,337 -510,527c-29,44 -56,80 -59,80c-3,0 -253,-249 -556,-552z"></path></g></g></g></svg>